<svg width="554" height="90" viewBox="0 0 554 90" fill="none" xmlns="http://www.w3.org/2000/svg">
<rect x="2" y="2" width="550" height="86" rx="20" fill="#EFF4F7" fill-opacity="0.3"/>
<path d="M177.121 34.4531H178.879C179.035 34.4531 179.113 34.5312 179.113 34.6875V55.3125C179.113 55.4688 179.035 55.5469 178.879 55.5469H177.121C176.965 55.5469 176.887 55.4688 176.887 55.3125V34.6875C176.887 34.5312 176.965 34.4531 177.121 34.4531Z" fill="#073944"/>
<path d="M168.156 43.8867H187.844C188 43.8867 188.078 43.9648 188.078 44.1211V45.8789C188.078 46.0352 188 46.1133 187.844 46.1133H168.156C168 46.1133 167.922 46.0352 167.922 45.8789V44.1211C167.922 43.9648 168 43.8867 168.156 43.8867Z" fill="#073944"/>
<path d="M220.704 44.82C221.21 44.9 221.67 45.1067 222.084 45.44C222.51 45.7733 222.844 46.1867 223.084 46.68C223.337 47.1733 223.464 47.7 223.464 48.26C223.464 48.9667 223.284 49.6067 222.924 50.18C222.564 50.74 222.037 51.1867 221.344 51.52C220.664 51.84 219.857 52 218.924 52H213.724V38.06H218.724C219.67 38.06 220.477 38.22 221.144 38.54C221.81 38.8467 222.31 39.2667 222.644 39.8C222.977 40.3333 223.144 40.9333 223.144 41.6C223.144 42.4267 222.917 43.1133 222.464 43.66C222.024 44.1933 221.437 44.58 220.704 44.82ZM215.544 44.08H218.604C219.457 44.08 220.117 43.88 220.584 43.48C221.05 43.08 221.284 42.5267 221.284 41.82C221.284 41.1133 221.05 40.56 220.584 40.16C220.117 39.76 219.444 39.56 218.564 39.56H215.544V44.08ZM218.764 50.5C219.67 50.5 220.377 50.2867 220.884 49.86C221.39 49.4333 221.644 48.84 221.644 48.08C221.644 47.3067 221.377 46.7 220.844 46.26C220.31 45.8067 219.597 45.58 218.704 45.58H215.544V50.5H218.764ZM226.929 39.26C226.583 39.26 226.289 39.14 226.049 38.9C225.809 38.66 225.689 38.3667 225.689 38.02C225.689 37.6733 225.809 37.38 226.049 37.14C226.289 36.9 226.583 36.78 226.929 36.78C227.263 36.78 227.543 36.9 227.769 37.14C228.009 37.38 228.129 37.6733 228.129 38.02C228.129 38.3667 228.009 38.66 227.769 38.9C227.543 39.14 227.263 39.26 226.929 39.26ZM227.809 41.04V52H225.989V41.04H227.809ZM232.731 37.2V52H230.911V37.2H232.731ZM235.153 46.48C235.153 45.36 235.38 44.38 235.833 43.54C236.286 42.6867 236.906 42.0267 237.693 41.56C238.493 41.0933 239.386 40.86 240.373 40.86C241.226 40.86 242.02 41.06 242.753 41.46C243.486 41.8467 244.046 42.36 244.433 43V37.2H246.273V52H244.433V49.94C244.073 50.5933 243.54 51.1333 242.833 51.56C242.126 51.9733 241.3 52.18 240.353 52.18C239.38 52.18 238.493 51.94 237.693 51.46C236.906 50.98 236.286 50.3067 235.833 49.44C235.38 48.5733 235.153 47.5867 235.153 46.48ZM244.433 46.5C244.433 45.6733 244.266 44.9533 243.933 44.34C243.6 43.7267 243.146 43.26 242.573 42.94C242.013 42.6067 241.393 42.44 240.713 42.44C240.033 42.44 239.413 42.6 238.853 42.92C238.293 43.24 237.846 43.7067 237.513 44.32C237.18 44.9333 237.013 45.6533 237.013 46.48C237.013 47.32 237.18 48.0533 237.513 48.68C237.846 49.2933 238.293 49.7667 238.853 50.1C239.413 50.42 240.033 50.58 240.713 50.58C241.393 50.58 242.013 50.42 242.573 50.1C243.146 49.7667 243.6 49.2933 243.933 48.68C244.266 48.0533 244.433 47.3267 244.433 46.5ZM260.121 40.84C260.947 40.84 261.694 41.02 262.361 41.38C263.027 41.7267 263.547 42.2533 263.921 42.96C264.307 43.6667 264.501 44.5267 264.501 45.54V52H262.701V45.8C262.701 44.7067 262.427 43.8733 261.881 43.3C261.334 42.7133 260.587 42.42 259.641 42.42C258.681 42.42 257.914 42.72 257.341 43.32C256.781 43.92 256.501 44.7933 256.501 45.94V52H254.681V37.2H256.501V42.6C256.861 42.04 257.354 41.6067 257.981 41.3C258.621 40.9933 259.334 40.84 260.121 40.84ZM272.254 52.18C271.227 52.18 270.294 51.9467 269.454 51.48C268.627 51.0133 267.974 50.3533 267.494 49.5C267.027 48.6333 266.794 47.6333 266.794 46.5C266.794 45.38 267.034 44.3933 267.514 43.54C268.007 42.6733 268.674 42.0133 269.514 41.56C270.354 41.0933 271.294 40.86 272.334 40.86C273.374 40.86 274.314 41.0933 275.154 41.56C275.994 42.0133 276.654 42.6667 277.134 43.52C277.627 44.3733 277.874 45.3667 277.874 46.5C277.874 47.6333 277.62 48.6333 277.114 49.5C276.62 50.3533 275.947 51.0133 275.094 51.48C274.24 51.9467 273.294 52.18 272.254 52.18ZM272.254 50.58C272.907 50.58 273.52 50.4267 274.094 50.12C274.667 49.8133 275.127 49.3533 275.474 48.74C275.834 48.1267 276.014 47.38 276.014 46.5C276.014 45.62 275.84 44.8733 275.494 44.26C275.147 43.6467 274.694 43.1933 274.134 42.9C273.574 42.5933 272.967 42.44 272.314 42.44C271.647 42.44 271.034 42.5933 270.474 42.9C269.927 43.1933 269.487 43.6467 269.154 44.26C268.82 44.8733 268.654 45.62 268.654 46.5C268.654 47.3933 268.814 48.1467 269.134 48.76C269.467 49.3733 269.907 49.8333 270.454 50.14C271 50.4333 271.6 50.58 272.254 50.58ZM279.587 46.5C279.587 45.3667 279.813 44.38 280.267 43.54C280.72 42.6867 281.347 42.0267 282.147 41.56C282.96 41.0933 283.887 40.86 284.927 40.86C286.273 40.86 287.38 41.1867 288.247 41.84C289.127 42.4933 289.707 43.4 289.987 44.56H288.027C287.84 43.8933 287.473 43.3667 286.927 42.98C286.393 42.5933 285.727 42.4 284.927 42.4C283.887 42.4 283.047 42.76 282.407 43.48C281.767 44.1867 281.447 45.1933 281.447 46.5C281.447 47.82 281.767 48.84 282.407 49.56C283.047 50.28 283.887 50.64 284.927 50.64C285.727 50.64 286.393 50.4533 286.927 50.08C287.46 49.7067 287.827 49.1733 288.027 48.48H289.987C289.693 49.6 289.107 50.5 288.227 51.18C287.347 51.8467 286.247 52.18 284.927 52.18C283.887 52.18 282.96 51.9467 282.147 51.48C281.347 51.0133 280.72 50.3533 280.267 49.5C279.813 48.6467 279.587 47.6467 279.587 46.5ZM297.855 40.84C298.682 40.84 299.428 41.02 300.095 41.38C300.762 41.7267 301.282 42.2533 301.655 42.96C302.042 43.6667 302.235 44.5267 302.235 45.54V52H300.435V45.8C300.435 44.7067 300.162 43.8733 299.615 43.3C299.068 42.7133 298.322 42.42 297.375 42.42C296.415 42.42 295.648 42.72 295.075 43.32C294.515 43.92 294.235 44.7933 294.235 45.94V52H292.415V37.2H294.235V42.6C294.595 42.04 295.088 41.6067 295.715 41.3C296.355 40.9933 297.068 40.84 297.855 40.84ZM307.028 37.2V52H305.208V37.2H307.028ZM309.45 46.48C309.45 45.36 309.677 44.38 310.13 43.54C310.583 42.6867 311.203 42.0267 311.99 41.56C312.79 41.0933 313.677 40.86 314.65 40.86C315.61 40.86 316.443 41.0667 317.15 41.48C317.857 41.8933 318.383 42.4133 318.73 43.04V41.04H320.57V52H318.73V49.96C318.37 50.6 317.83 51.1333 317.11 51.56C316.403 51.9733 315.577 52.18 314.63 52.18C313.657 52.18 312.777 51.94 311.99 51.46C311.203 50.98 310.583 50.3067 310.13 49.44C309.677 48.5733 309.45 47.5867 309.45 46.48ZM318.73 46.5C318.73 45.6733 318.563 44.9533 318.23 44.34C317.897 43.7267 317.443 43.26 316.87 42.94C316.31 42.6067 315.69 42.44 315.01 42.44C314.33 42.44 313.71 42.6 313.15 42.92C312.59 43.24 312.143 43.7067 311.81 44.32C311.477 44.9333 311.31 45.6533 311.31 46.48C311.31 47.32 311.477 48.0533 311.81 48.68C312.143 49.2933 312.59 49.7667 313.15 50.1C313.71 50.42 314.33 50.58 315.01 50.58C315.69 50.58 316.31 50.42 316.87 50.1C317.443 49.7667 317.897 49.2933 318.23 48.68C318.563 48.0533 318.73 47.3267 318.73 46.5ZM322.965 46.48C322.965 45.36 323.192 44.38 323.645 43.54C324.099 42.6867 324.719 42.0267 325.505 41.56C326.305 41.0933 327.199 40.86 328.185 40.86C329.039 40.86 329.832 41.06 330.565 41.46C331.299 41.8467 331.859 42.36 332.245 43V37.2H334.085V52H332.245V49.94C331.885 50.5933 331.352 51.1333 330.645 51.56C329.939 51.9733 329.112 52.18 328.165 52.18C327.192 52.18 326.305 51.94 325.505 51.46C324.719 50.98 324.099 50.3067 323.645 49.44C323.192 48.5733 322.965 47.5867 322.965 46.48ZM332.245 46.5C332.245 45.6733 332.079 44.9533 331.745 44.34C331.412 43.7267 330.959 43.26 330.385 42.94C329.825 42.6067 329.205 42.44 328.525 42.44C327.845 42.44 327.225 42.6 326.665 42.92C326.105 43.24 325.659 43.7067 325.325 44.32C324.992 44.9333 324.825 45.6533 324.825 46.48C324.825 47.32 324.992 48.0533 325.325 48.68C325.659 49.2933 326.105 49.7667 326.665 50.1C327.225 50.42 327.845 50.58 328.525 50.58C329.205 50.58 329.825 50.42 330.385 50.1C330.959 49.7667 331.412 49.2933 331.745 48.68C332.079 48.0533 332.245 47.3267 332.245 46.5ZM347.161 46.1C347.161 46.4467 347.141 46.8133 347.101 47.2H338.341C338.408 48.28 338.774 49.1267 339.441 49.74C340.121 50.34 340.941 50.64 341.901 50.64C342.688 50.64 343.341 50.46 343.861 50.1C344.394 49.7267 344.768 49.2333 344.981 48.62H346.941C346.648 49.6733 346.061 50.5333 345.181 51.2C344.301 51.8533 343.208 52.18 341.901 52.18C340.861 52.18 339.928 51.9467 339.101 51.48C338.288 51.0133 337.648 50.3533 337.181 49.5C336.714 48.6333 336.481 47.6333 336.481 46.5C336.481 45.3667 336.708 44.3733 337.161 43.52C337.614 42.6667 338.248 42.0133 339.061 41.56C339.888 41.0933 340.834 40.86 341.901 40.86C342.941 40.86 343.861 41.0867 344.661 41.54C345.461 41.9933 346.074 42.62 346.501 43.42C346.941 44.2067 347.161 45.1 347.161 46.1ZM345.281 45.72C345.281 45.0267 345.128 44.4333 344.821 43.94C344.514 43.4333 344.094 43.0533 343.561 42.8C343.041 42.5333 342.461 42.4 341.821 42.4C340.901 42.4 340.114 42.6933 339.461 43.28C338.821 43.8667 338.454 44.68 338.361 45.72H345.281ZM354.903 40.84C356.237 40.84 357.317 41.2467 358.143 42.06C358.97 42.86 359.383 44.02 359.383 45.54V52H357.583V45.8C357.583 44.7067 357.31 43.8733 356.763 43.3C356.217 42.7133 355.47 42.42 354.523 42.42C353.563 42.42 352.797 42.72 352.223 43.32C351.663 43.92 351.383 44.7933 351.383 45.94V52H349.563V41.04H351.383V42.6C351.743 42.04 352.23 41.6067 352.843 41.3C353.47 40.9933 354.157 40.84 354.903 40.84Z" fill="#073944"/>
<rect x="1" y="1" width="552" height="88" rx="21" stroke="#073944" stroke-opacity="0.8" stroke-width="2" stroke-dasharray="15 15"/>
</svg>
