<svg width="98" height="49" viewBox="0 0 98 49" fill="none" xmlns="http://www.w3.org/2000/svg">
<path d="M0 24.5C0 12.3497 9.84974 2.5 22 2.5H78C89.0457 2.5 98 11.4543 98 22.5V26.5C98 37.5457 89.0457 46.5 78 46.5H22C9.84974 46.5 0 36.6503 0 24.5Z" fill="#EFF4F7"/>
<rect x="0.5" y="0.5" width="48" height="48" rx="23" fill="#39A2DB" fill-opacity="0.5"/>
<path d="M17.201 24.5C17.201 28.5264 20.4764 31.8018 24.5029 31.8018C28.5293 31.8018 31.8048 28.5264 31.8048 24.5C31.8048 20.4735 28.5293 17.1981 24.5029 17.1981C20.4764 17.1981 17.201 20.4735 17.201 24.5ZM23.0416 34.7083H25.9583V39.0833H23.0416V34.7083ZM23.0416 9.91663H25.9583V14.2916H23.0416V9.91663ZM9.91663 23.0416H14.2916V25.9583H9.91663V23.0416ZM34.7083 23.0416H39.0833V25.9583H34.7083V23.0416ZM15.2206 35.8429L13.1585 33.7808L16.2516 30.6877L18.3137 32.7497L15.2206 35.8429ZM30.6862 16.2516L33.7808 13.157L35.8429 15.2191L32.7483 18.3137L30.6862 16.2516ZM16.2516 18.3152L13.1585 15.2206L15.222 13.1585L18.3137 16.2531L16.2516 18.3152ZM35.8429 33.7808L33.7808 35.8429L30.6862 32.7483L32.7483 30.6862L35.8429 33.7808Z" fill="#073944"/>
<g clip-path="url(#clip0_229_100)">
<path d="M75 24.2186C73.165 22.383 71.9154 20.0446 71.409 17.4991C70.9026 14.9535 71.1621 12.3149 72.1548 9.91675C69.3245 10.4739 66.7248 11.8626 64.6881 13.9053C58.9933 19.6001 58.9933 28.8342 64.6881 34.529C70.3843 40.2253 79.617 40.2238 85.3133 34.529C87.3554 32.4925 88.7441 29.8934 89.3018 27.0638C86.9037 28.0563 84.2651 28.3157 81.7196 27.8093C79.174 27.3029 76.8357 26.0534 75 24.2186Z" fill="#073944"/>
</g>
<defs>
<clipPath id="clip0_229_100">
<rect x="60.5" y="7" width="35" height="35" rx="17.5" fill="white"/>
</clipPath>
</defs>
</svg>
