<svg width="28" height="29" viewBox="0 0 28 29" fill="none" xmlns="http://www.w3.org/2000/svg">
<path d="M8.72131 3.28906H8.44788C8.59827 3.28906 8.72131 3.16602 8.72131 3.01562V3.28906H19.1119V3.01562C19.1119 3.16602 19.235 3.28906 19.3854 3.28906H19.1119V5.75H21.5729V3.01562C21.5729 1.80908 20.5919 0.828125 19.3854 0.828125H8.44788C7.24133 0.828125 6.26038 1.80908 6.26038 3.01562V5.75H8.72131V3.28906ZM25.9479 5.75H1.88538C1.2804 5.75 0.791626 6.23877 0.791626 6.84375V7.9375C0.791626 8.08789 0.914673 8.21094 1.06506 8.21094H3.12952L3.97376 26.0869C4.02844 27.2524 4.99231 28.1719 6.15784 28.1719H21.6754C22.8444 28.1719 23.8048 27.2559 23.8595 26.0869L24.7037 8.21094H26.7682C26.9186 8.21094 27.0416 8.08789 27.0416 7.9375V6.84375C27.0416 6.23877 26.5529 5.75 25.9479 5.75ZM21.4122 25.7109H6.42102L5.59387 8.21094H22.2394L21.4122 25.7109Z" fill="#073944"/>
</svg>
