<svg width="268" height="74" viewBox="0 0 268 74" fill="none" xmlns="http://www.w3.org/2000/svg">
<g filter="url(#filter0_d_231_197)">
<path d="M9.99 3.94V25H4.86V3.94H9.99ZM23.9077 8.08C25.8677 8.08 27.4277 8.72 28.5877 10C29.7677 11.26 30.3577 13 30.3577 15.22V25H25.2577V15.91C25.2577 14.79 24.9677 13.92 24.3877 13.3C23.8077 12.68 23.0277 12.37 22.0477 12.37C21.0677 12.37 20.2877 12.68 19.7077 13.3C19.1277 13.92 18.8377 14.79 18.8377 15.91V25H13.7077V8.26H18.8377V10.48C19.3577 9.74 20.0577 9.16 20.9377 8.74C21.8177 8.3 22.8077 8.08 23.9077 8.08ZM40.7325 25.24C39.2725 25.24 37.9725 24.99 36.8325 24.49C35.6925 23.99 34.7925 23.31 34.1325 22.45C33.4725 21.57 33.1025 20.59 33.0225 19.51H38.0925C38.1525 20.09 38.4225 20.56 38.9025 20.92C39.3825 21.28 39.9725 21.46 40.6725 21.46C41.3125 21.46 41.8025 21.34 42.1425 21.1C42.5025 20.84 42.6825 20.51 42.6825 20.11C42.6825 19.63 42.4325 19.28 41.9325 19.06C41.4325 18.82 40.6225 18.56 39.5025 18.28C38.3025 18 37.3025 17.71 36.5025 17.41C35.7025 17.09 35.0125 16.6 34.4325 15.94C33.8525 15.26 33.5625 14.35 33.5625 13.21C33.5625 12.25 33.8225 11.38 34.3425 10.6C34.8825 9.8 35.6625 9.17 36.6825 8.71C37.7225 8.25 38.9525 8.02 40.3725 8.02C42.4725 8.02 44.1225 8.54 45.3225 9.58C46.5425 10.62 47.2425 12 47.4225 13.72H42.6825C42.6025 13.14 42.3425 12.68 41.9025 12.34C41.4825 12 40.9225 11.83 40.2225 11.83C39.6225 11.83 39.1625 11.95 38.8425 12.19C38.5225 12.41 38.3625 12.72 38.3625 13.12C38.3625 13.6 38.6125 13.96 39.1125 14.2C39.6325 14.44 40.4325 14.68 41.5125 14.92C42.7525 15.24 43.7625 15.56 44.5425 15.88C45.3225 16.18 46.0025 16.68 46.5825 17.38C47.1825 18.06 47.4925 18.98 47.5125 20.14C47.5125 21.12 47.2325 22 46.6725 22.78C46.1325 23.54 45.3425 24.14 44.3025 24.58C43.2825 25.02 42.0925 25.24 40.7325 25.24ZM59.981 20.65V25H57.371C55.511 25 54.061 24.55 53.021 23.65C51.981 22.73 51.461 21.24 51.461 19.18V12.52H49.421V8.26H51.461V4.18H56.591V8.26H59.951V12.52H56.591V19.24C56.591 19.74 56.711 20.1 56.951 20.32C57.191 20.54 57.591 20.65 58.151 20.65H59.981ZM65.4185 6.52C64.5185 6.52 63.7785 6.26 63.1985 5.74C62.6385 5.2 62.3585 4.54 62.3585 3.76C62.3585 2.96 62.6385 2.3 63.1985 1.78C63.7785 1.24 64.5185 0.969998 65.4185 0.969998C66.2985 0.969998 67.0185 1.24 67.5785 1.78C68.1585 2.3 68.4485 2.96 68.4485 3.76C68.4485 4.54 68.1585 5.2 67.5785 5.74C67.0185 6.26 66.2985 6.52 65.4185 6.52ZM67.9685 8.26V25H62.8385V8.26H67.9685ZM81.0162 20.65V25H78.4062C76.5462 25 75.0962 24.55 74.0562 23.65C73.0162 22.73 72.4962 21.24 72.4962 19.18V12.52H70.4562V8.26H72.4962V4.18H77.6262V8.26H80.9862V12.52H77.6262V19.24C77.6262 19.74 77.7462 20.1 77.9862 20.32C78.2262 20.54 78.6262 20.65 79.1862 20.65H81.0162ZM100.404 8.26V25H95.2737V22.72C94.7537 23.46 94.0437 24.06 93.1437 24.52C92.2637 24.96 91.2837 25.18 90.2037 25.18C88.9237 25.18 87.7937 24.9 86.8137 24.34C85.8337 23.76 85.0737 22.93 84.5337 21.85C83.9937 20.77 83.7237 19.5 83.7237 18.04V8.26H88.8237V17.35C88.8237 18.47 89.1137 19.34 89.6937 19.96C90.2737 20.58 91.0537 20.89 92.0337 20.89C93.0337 20.89 93.8237 20.58 94.4037 19.96C94.9837 19.34 95.2737 18.47 95.2737 17.35V8.26H100.404ZM113.419 20.65V25H110.809C108.949 25 107.499 24.55 106.459 23.65C105.419 22.73 104.899 21.24 104.899 19.18V12.52H102.859V8.26H104.899V4.18H110.029V8.26H113.389V12.52H110.029V19.24C110.029 19.74 110.149 20.1 110.389 20.32C110.629 20.54 111.029 20.65 111.589 20.65H113.419ZM131.033 12.52H128.273V25H123.143V12.52H121.283V8.26H123.143V7.78C123.143 5.72 123.733 4.16 124.913 3.1C126.093 2.02 127.823 1.48 130.103 1.48C130.483 1.48 130.763 1.49 130.943 1.51V5.86C129.963 5.8 129.273 5.94 128.873 6.28C128.473 6.62 128.273 7.23 128.273 8.11V8.26H131.033V12.52ZM149.974 8.26V25H144.844V22.72C144.324 23.46 143.614 24.06 142.714 24.52C141.834 24.96 140.854 25.18 139.774 25.18C138.494 25.18 137.364 24.9 136.384 24.34C135.404 23.76 134.644 22.93 134.104 21.85C133.564 20.77 133.294 19.5 133.294 18.04V8.26H138.394V17.35C138.394 18.47 138.684 19.34 139.264 19.96C139.844 20.58 140.624 20.89 141.604 20.89C142.604 20.89 143.394 20.58 143.974 19.96C144.554 19.34 144.844 18.47 144.844 17.35V8.26H149.974ZM138.694 6.4C138.074 6.4 137.554 6.19 137.134 5.77C136.714 5.35 136.504 4.83 136.504 4.21C136.504 3.59 136.714 3.07 137.134 2.65C137.554 2.21 138.074 1.99 138.694 1.99C139.334 1.99 139.864 2.2 140.284 2.62C140.704 3.04 140.914 3.57 140.914 4.21C140.914 4.83 140.694 5.35 140.254 5.77C139.834 6.19 139.314 6.4 138.694 6.4ZM144.694 6.4C144.074 6.4 143.554 6.19 143.134 5.77C142.714 5.35 142.504 4.83 142.504 4.21C142.504 3.59 142.714 3.07 143.134 2.65C143.554 2.21 144.074 1.99 144.694 1.99C145.334 1.99 145.864 2.2 146.284 2.62C146.704 3.04 146.914 3.57 146.914 4.21C146.914 4.83 146.694 5.35 146.254 5.77C145.834 6.19 145.314 6.4 144.694 6.4ZM158.789 11.05C159.389 10.13 160.139 9.41 161.039 8.89C161.939 8.35 162.939 8.08 164.039 8.08V13.51H162.629C161.349 13.51 160.389 13.79 159.749 14.35C159.109 14.89 158.789 15.85 158.789 17.23V25H153.659V8.26H158.789V11.05Z" fill="white" shape-rendering="crispEdges"/>
<path d="M23.7 57H18.57L9.99 44.01V57H4.86V35.94H9.99L18.57 48.99V35.94H23.7V57ZM43.1986 48.36C43.1986 48.84 43.1686 49.34 43.1086 49.86H31.4986C31.5786 50.9 31.9086 51.7 32.4886 52.26C33.0886 52.8 33.8186 53.07 34.6786 53.07C35.9586 53.07 36.8486 52.53 37.3486 51.45H42.8086C42.5286 52.55 42.0186 53.54 41.2786 54.42C40.5586 55.3 39.6486 55.99 38.5486 56.49C37.4486 56.99 36.2186 57.24 34.8586 57.24C33.2186 57.24 31.7586 56.89 30.4786 56.19C29.1986 55.49 28.1986 54.49 27.4786 53.19C26.7586 51.89 26.3986 50.37 26.3986 48.63C26.3986 46.89 26.7486 45.37 27.4486 44.07C28.1686 42.77 29.1686 41.77 30.4486 41.07C31.7286 40.37 33.1986 40.02 34.8586 40.02C36.4786 40.02 37.9186 40.36 39.1786 41.04C40.4386 41.72 41.4186 42.69 42.1186 43.95C42.8386 45.21 43.1986 46.68 43.1986 48.36ZM37.9486 47.01C37.9486 46.13 37.6486 45.43 37.0486 44.91C36.4486 44.39 35.6986 44.13 34.7986 44.13C33.9386 44.13 33.2086 44.38 32.6086 44.88C32.0286 45.38 31.6686 46.09 31.5286 47.01H37.9486ZM62.4349 40.26V57H57.3049V54.72C56.7849 55.46 56.0749 56.06 55.1749 56.52C54.2949 56.96 53.3149 57.18 52.2349 57.18C50.9549 57.18 49.8249 56.9 48.8449 56.34C47.8649 55.76 47.1049 54.93 46.5649 53.85C46.0249 52.77 45.7549 51.5 45.7549 50.04V40.26H50.8549V49.35C50.8549 50.47 51.1449 51.34 51.7249 51.96C52.3049 52.58 53.0849 52.89 54.0649 52.89C55.0649 52.89 55.8549 52.58 56.4349 51.96C57.0149 51.34 57.3049 50.47 57.3049 49.35V40.26H62.4349ZM71.2498 43.05C71.8498 42.13 72.5998 41.41 73.4998 40.89C74.3998 40.35 75.3998 40.08 76.4998 40.08V45.51H75.0898C73.8098 45.51 72.8498 45.79 72.2098 46.35C71.5698 46.89 71.2498 47.85 71.2498 49.23V57H66.1198V40.26H71.2498V43.05ZM86.5718 57.24C84.9318 57.24 83.4518 56.89 82.1318 56.19C80.8318 55.49 79.8018 54.49 79.0418 53.19C78.3018 51.89 77.9318 50.37 77.9318 48.63C77.9318 46.91 78.3118 45.4 79.0718 44.1C79.8318 42.78 80.8718 41.77 82.1918 41.07C83.5118 40.37 84.9918 40.02 86.6318 40.02C88.2718 40.02 89.7518 40.37 91.0718 41.07C92.3918 41.77 93.4318 42.78 94.1918 44.1C94.9518 45.4 95.3318 46.91 95.3318 48.63C95.3318 50.35 94.9418 51.87 94.1618 53.19C93.4018 54.49 92.3518 55.49 91.0118 56.19C89.6918 56.89 88.2118 57.24 86.5718 57.24ZM86.5718 52.8C87.5518 52.8 88.3818 52.44 89.0618 51.72C89.7618 51 90.1118 49.97 90.1118 48.63C90.1118 47.29 89.7718 46.26 89.0918 45.54C88.4318 44.82 87.6118 44.46 86.6318 44.46C85.6318 44.46 84.8018 44.82 84.1418 45.54C83.4818 46.24 83.1518 47.27 83.1518 48.63C83.1518 49.97 83.4718 51 84.1118 51.72C84.7718 52.44 85.5918 52.8 86.5718 52.8ZM103.183 42.63C103.683 41.85 104.373 41.22 105.253 40.74C106.133 40.26 107.163 40.02 108.343 40.02C109.723 40.02 110.973 40.37 112.093 41.07C113.213 41.77 114.093 42.77 114.733 44.07C115.393 45.37 115.723 46.88 115.723 48.6C115.723 50.32 115.393 51.84 114.733 53.16C114.093 54.46 113.213 55.47 112.093 56.19C110.973 56.89 109.723 57.24 108.343 57.24C107.183 57.24 106.153 57 105.253 56.52C104.373 56.04 103.683 55.42 103.183 54.66V64.98H98.0534V40.26H103.183V42.63ZM110.503 48.6C110.503 47.32 110.143 46.32 109.423 45.6C108.723 44.86 107.853 44.49 106.813 44.49C105.793 44.49 104.923 44.86 104.203 45.6C103.503 46.34 103.153 47.35 103.153 48.63C103.153 49.91 103.503 50.92 104.203 51.66C104.923 52.4 105.793 52.77 106.813 52.77C107.833 52.77 108.703 52.4 109.423 51.66C110.143 50.9 110.503 49.88 110.503 48.6ZM117.395 48.6C117.395 46.88 117.715 45.37 118.355 44.07C119.015 42.77 119.905 41.77 121.025 41.07C122.145 40.37 123.395 40.02 124.775 40.02C125.955 40.02 126.985 40.26 127.865 40.74C128.765 41.22 129.455 41.85 129.935 42.63V40.26H135.065V57H129.935V54.63C129.435 55.41 128.735 56.04 127.835 56.52C126.955 57 125.925 57.24 124.745 57.24C123.385 57.24 122.145 56.89 121.025 56.19C119.905 55.47 119.015 54.46 118.355 53.16C117.715 51.84 117.395 50.32 117.395 48.6ZM129.935 48.63C129.935 47.35 129.575 46.34 128.855 45.6C128.155 44.86 127.295 44.49 126.275 44.49C125.255 44.49 124.385 44.86 123.665 45.6C122.965 46.32 122.615 47.32 122.615 48.6C122.615 49.88 122.965 50.9 123.665 51.66C124.385 52.4 125.255 52.77 126.275 52.77C127.295 52.77 128.155 52.4 128.855 51.66C129.575 50.92 129.935 49.91 129.935 48.63ZM148.106 52.65V57H145.496C143.636 57 142.186 56.55 141.146 55.65C140.106 54.73 139.586 53.24 139.586 51.18V44.52H137.546V40.26H139.586V36.18H144.716V40.26H148.076V44.52H144.716V51.24C144.716 51.74 144.836 52.1 145.076 52.32C145.316 52.54 145.716 52.65 146.276 52.65H148.106ZM161.254 40.08C163.174 40.08 164.714 40.72 165.874 42C167.034 43.26 167.614 45 167.614 47.22V57H162.514V47.91C162.514 46.79 162.224 45.92 161.644 45.3C161.064 44.68 160.284 44.37 159.304 44.37C158.324 44.37 157.544 44.68 156.964 45.3C156.384 45.92 156.094 46.79 156.094 47.91V57H150.964V34.8H156.094V42.51C156.614 41.77 157.324 41.18 158.224 40.74C159.124 40.3 160.134 40.08 161.254 40.08ZM178.798 57.24C177.158 57.24 175.678 56.89 174.358 56.19C173.058 55.49 172.028 54.49 171.268 53.19C170.528 51.89 170.158 50.37 170.158 48.63C170.158 46.91 170.538 45.4 171.298 44.1C172.058 42.78 173.098 41.77 174.418 41.07C175.738 40.37 177.218 40.02 178.858 40.02C180.498 40.02 181.978 40.37 183.298 41.07C184.618 41.77 185.658 42.78 186.418 44.1C187.178 45.4 187.558 46.91 187.558 48.63C187.558 50.35 187.168 51.87 186.388 53.19C185.628 54.49 184.578 55.49 183.238 56.19C181.918 56.89 180.438 57.24 178.798 57.24ZM178.798 52.8C179.778 52.8 180.608 52.44 181.288 51.72C181.988 51 182.338 49.97 182.338 48.63C182.338 47.29 181.998 46.26 181.318 45.54C180.658 44.82 179.838 44.46 178.858 44.46C177.858 44.46 177.028 44.82 176.368 45.54C175.708 46.24 175.378 47.27 175.378 48.63C175.378 49.97 175.698 51 176.338 51.72C176.998 52.44 177.818 52.8 178.798 52.8ZM195.41 34.8V57H190.28V34.8H195.41ZM206.748 57.24C205.108 57.24 203.628 56.89 202.308 56.19C201.008 55.49 199.978 54.49 199.218 53.19C198.478 51.89 198.108 50.37 198.108 48.63C198.108 46.91 198.488 45.4 199.248 44.1C200.008 42.78 201.048 41.77 202.368 41.07C203.688 40.37 205.168 40.02 206.808 40.02C208.448 40.02 209.928 40.37 211.248 41.07C212.568 41.77 213.608 42.78 214.368 44.1C215.128 45.4 215.508 46.91 215.508 48.63C215.508 50.35 215.118 51.87 214.338 53.19C213.578 54.49 212.528 55.49 211.188 56.19C209.868 56.89 208.388 57.24 206.748 57.24ZM206.748 52.8C207.728 52.8 208.558 52.44 209.238 51.72C209.938 51 210.288 49.97 210.288 48.63C210.288 47.29 209.948 46.26 209.268 45.54C208.608 44.82 207.788 44.46 206.808 44.46C205.808 44.46 204.978 44.82 204.318 45.54C203.658 46.24 203.328 47.27 203.328 48.63C203.328 49.97 203.648 51 204.288 51.72C204.948 52.44 205.768 52.8 206.748 52.8ZM224.589 40.02C225.769 40.02 226.799 40.26 227.679 40.74C228.579 41.22 229.269 41.85 229.749 42.63V40.26H234.879V56.97C234.879 58.51 234.569 59.9 233.949 61.14C233.349 62.4 232.419 63.4 231.159 64.14C229.919 64.88 228.369 65.25 226.509 65.25C224.029 65.25 222.019 64.66 220.479 63.48C218.939 62.32 218.059 60.74 217.839 58.74H222.909C223.069 59.38 223.449 59.88 224.049 60.24C224.649 60.62 225.389 60.81 226.269 60.81C227.329 60.81 228.169 60.5 228.789 59.88C229.429 59.28 229.749 58.31 229.749 56.97V54.6C229.249 55.38 228.559 56.02 227.679 56.52C226.799 57 225.769 57.24 224.589 57.24C223.209 57.24 221.959 56.89 220.839 56.19C219.719 55.47 218.829 54.46 218.169 53.16C217.529 51.84 217.209 50.32 217.209 48.6C217.209 46.88 217.529 45.37 218.169 44.07C218.829 42.77 219.719 41.77 220.839 41.07C221.959 40.37 223.209 40.02 224.589 40.02ZM229.749 48.63C229.749 47.35 229.389 46.34 228.669 45.6C227.969 44.86 227.109 44.49 226.089 44.49C225.069 44.49 224.199 44.86 223.479 45.6C222.779 46.32 222.429 47.32 222.429 48.6C222.429 49.88 222.779 50.9 223.479 51.66C224.199 52.4 225.069 52.77 226.089 52.77C227.109 52.77 227.969 52.4 228.669 51.66C229.389 50.92 229.749 49.91 229.749 48.63ZM241.17 38.52C240.27 38.52 239.53 38.26 238.95 37.74C238.39 37.2 238.11 36.54 238.11 35.76C238.11 34.96 238.39 34.3 238.95 33.78C239.53 33.24 240.27 32.97 241.17 32.97C242.05 32.97 242.77 33.24 243.33 33.78C243.91 34.3 244.2 34.96 244.2 35.76C244.2 36.54 243.91 37.2 243.33 37.74C242.77 38.26 242.05 38.52 241.17 38.52ZM243.72 40.26V57H238.59V40.26H243.72ZM263.218 48.36C263.218 48.84 263.188 49.34 263.128 49.86H251.518C251.598 50.9 251.928 51.7 252.508 52.26C253.108 52.8 253.838 53.07 254.698 53.07C255.978 53.07 256.868 52.53 257.368 51.45H262.828C262.548 52.55 262.038 53.54 261.298 54.42C260.578 55.3 259.668 55.99 258.568 56.49C257.468 56.99 256.238 57.24 254.878 57.24C253.238 57.24 251.778 56.89 250.498 56.19C249.218 55.49 248.218 54.49 247.498 53.19C246.778 51.89 246.418 50.37 246.418 48.63C246.418 46.89 246.768 45.37 247.468 44.07C248.188 42.77 249.188 41.77 250.468 41.07C251.748 40.37 253.218 40.02 254.878 40.02C256.498 40.02 257.938 40.36 259.198 41.04C260.458 41.72 261.438 42.69 262.138 43.95C262.858 45.21 263.218 46.68 263.218 48.36ZM257.968 47.01C257.968 46.13 257.668 45.43 257.068 44.91C256.468 44.39 255.718 44.13 254.818 44.13C253.958 44.13 253.228 44.38 252.628 44.88C252.048 45.38 251.688 46.09 251.548 47.01H257.968Z" fill="white" fill-opacity="0.85" shape-rendering="crispEdges"/>
</g>
<defs>
<filter id="filter0_d_231_197" x="0.860107" y="0.969971" width="266.358" height="72.28" filterUnits="userSpaceOnUse" color-interpolation-filters="sRGB">
<feFlood flood-opacity="0" result="BackgroundImageFix"/>
<feColorMatrix in="SourceAlpha" type="matrix" values="0 0 0 0 0 0 0 0 0 0 0 0 0 0 0 0 0 0 127 0" result="hardAlpha"/>
<feOffset dy="4"/>
<feGaussianBlur stdDeviation="2"/>
<feComposite in2="hardAlpha" operator="out"/>
<feColorMatrix type="matrix" values="0 0 0 0 0 0 0 0 0 0 0 0 0 0 0 0 0 0 0.25 0"/>
<feBlend mode="normal" in2="BackgroundImageFix" result="effect1_dropShadow_231_197"/>
<feBlend mode="normal" in="SourceGraphic" in2="effect1_dropShadow_231_197" result="shape"/>
</filter>
</defs>
</svg>
